%TF.GenerationSoftware,KiCad,Pcbnew,7.0.5*%
%TF.CreationDate,2023-07-02T14:02:18+02:00*%
%TF.ProjectId,usb_to_serial_converter,7573625f-746f-45f7-9365-7269616c5f63,rev?*%
%TF.SameCoordinates,Original*%
%TF.FileFunction,Copper,L2,Bot*%
%TF.FilePolarity,Positive*%
%FSLAX46Y46*%
G04 Gerber Fmt 4.6, Leading zero omitted, Abs format (unit mm)*
G04 Created by KiCad (PCBNEW 7.0.5) date 2023-07-02 14:02:18*
%MOMM*%
%LPD*%
G01*
G04 APERTURE LIST*
%TA.AperFunction,ComponentPad*%
%ADD10O,2.100000X1.000000*%
%TD*%
%TA.AperFunction,ComponentPad*%
%ADD11O,1.600000X1.000000*%
%TD*%
%TA.AperFunction,ViaPad*%
%ADD12C,0.500000*%
%TD*%
%TA.AperFunction,ViaPad*%
%ADD13C,0.800000*%
%TD*%
%TA.AperFunction,Conductor*%
%ADD14C,0.250000*%
%TD*%
%TA.AperFunction,Conductor*%
%ADD15C,0.200000*%
%TD*%
G04 APERTURE END LIST*
D10*
%TO.P,J1,S1,SHIELD*%
%TO.N,GND*%
X114085000Y-76580000D03*
D11*
X109905000Y-76580000D03*
D10*
X114085000Y-85220000D03*
D11*
X109905000Y-85220000D03*
%TD*%
D12*
%TO.N,GND*%
X138900000Y-82400000D03*
X124845000Y-78900000D03*
X125745000Y-79700000D03*
X123900000Y-79700000D03*
D13*
X115800000Y-76700000D03*
D12*
X123900000Y-78900000D03*
D13*
X115800000Y-85100000D03*
D12*
X125745000Y-78900000D03*
X137300000Y-83100000D03*
D13*
X130020000Y-81560000D03*
D12*
X124845000Y-79700000D03*
X138900000Y-84400000D03*
X137300000Y-83800000D03*
X137900000Y-84400000D03*
X137900000Y-82400000D03*
D13*
%TO.N,/3v3*%
X127020000Y-76335500D03*
X124189311Y-81637151D03*
X127020000Y-78660000D03*
%TO.N,/D+*%
X116800000Y-80200000D03*
X113600000Y-80700000D03*
%TO.N,/D-*%
X112843892Y-81356108D03*
X116800000Y-81700000D03*
%TD*%
D14*
%TO.N,/3v3*%
X127020000Y-81060000D02*
X126442849Y-81637151D01*
X126442849Y-81637151D02*
X124189311Y-81637151D01*
X127020000Y-78660000D02*
X127020000Y-81060000D01*
X127020000Y-76335500D02*
X127020000Y-78660000D01*
D15*
%TO.N,/D+*%
X116800000Y-80200000D02*
X116300000Y-80700000D01*
X116300000Y-80700000D02*
X113600000Y-80700000D01*
%TO.N,/D-*%
X116500000Y-81400000D02*
X116800000Y-81700000D01*
X112843892Y-81356108D02*
X112887784Y-81400000D01*
X112887784Y-81400000D02*
X116500000Y-81400000D01*
%TD*%
%TA.AperFunction,Conductor*%
%TO.N,GND*%
G36*
X111716493Y-67105385D02*
G01*
X111919953Y-67114792D01*
X111921937Y-67114927D01*
X112149586Y-67135416D01*
X112151869Y-67135678D01*
X112353538Y-67163809D01*
X112355478Y-67164121D01*
X112580412Y-67204940D01*
X112582816Y-67205441D01*
X112780871Y-67252023D01*
X112782686Y-67252487D01*
X113003178Y-67313339D01*
X113005616Y-67314083D01*
X113198415Y-67378703D01*
X113199979Y-67379259D01*
X113414373Y-67459722D01*
X113416875Y-67460743D01*
X113602605Y-67542751D01*
X113603969Y-67543381D01*
X113753803Y-67615538D01*
X113810540Y-67642861D01*
X113813151Y-67644215D01*
X113990095Y-67742773D01*
X113991368Y-67743507D01*
X114188517Y-67861298D01*
X114191083Y-67862942D01*
X114357720Y-67977091D01*
X114358841Y-67977882D01*
X114545078Y-68113190D01*
X114547606Y-68115155D01*
X114702491Y-68243771D01*
X114703434Y-68244573D01*
X114877291Y-68396467D01*
X114879715Y-68398734D01*
X115021505Y-68540524D01*
X115022282Y-68541318D01*
X115182397Y-68708785D01*
X115184702Y-68711371D01*
X115312381Y-68865130D01*
X115386016Y-68957465D01*
X115457890Y-69047592D01*
X115460018Y-69050470D01*
X115572049Y-69214015D01*
X115701432Y-69410023D01*
X115703365Y-69413206D01*
X115798792Y-69584530D01*
X115911050Y-69793139D01*
X115912744Y-69796603D01*
X115990662Y-69973072D01*
X116084985Y-70193751D01*
X116086403Y-70197477D01*
X116146104Y-70375602D01*
X116221788Y-70608530D01*
X116222896Y-70612495D01*
X116263809Y-70786449D01*
X116320326Y-71034067D01*
X116321093Y-71038245D01*
X116342874Y-71194379D01*
X116379779Y-71466828D01*
X116380174Y-71471188D01*
X116382538Y-71522321D01*
X116390386Y-71697067D01*
X116399450Y-71898883D01*
X116399500Y-71901104D01*
X116399500Y-74380391D01*
X116399424Y-74380774D01*
X116399459Y-74400000D01*
X116399500Y-74400099D01*
X116399617Y-74400383D01*
X116400000Y-74400541D01*
X116400002Y-74400539D01*
X116419651Y-74400527D01*
X116419787Y-74400500D01*
X131880213Y-74400500D01*
X131880348Y-74400527D01*
X131899997Y-74400539D01*
X131900000Y-74400541D01*
X131900383Y-74400383D01*
X131900500Y-74400099D01*
X131900541Y-74400000D01*
X131900540Y-74399997D01*
X131900575Y-74380774D01*
X131900499Y-74380396D01*
X131900499Y-71967765D01*
X134845788Y-71967765D01*
X134875414Y-72237020D01*
X134909997Y-72369301D01*
X134943928Y-72499088D01*
X135049870Y-72748390D01*
X135121999Y-72866577D01*
X135190983Y-72979612D01*
X135280252Y-73086880D01*
X135364255Y-73187820D01*
X135565998Y-73368582D01*
X135788624Y-73515870D01*
X135791913Y-73518046D01*
X135924100Y-73580012D01*
X136037176Y-73633020D01*
X136182628Y-73676780D01*
X136296555Y-73711056D01*
X136296559Y-73711057D01*
X136296569Y-73711060D01*
X136463840Y-73735677D01*
X136564560Y-73750500D01*
X136564561Y-73750500D01*
X136767631Y-73750500D01*
X136970156Y-73735677D01*
X137234553Y-73676780D01*
X137487558Y-73580014D01*
X137723777Y-73447441D01*
X137938177Y-73281888D01*
X138126186Y-73086881D01*
X138283799Y-72866579D01*
X138407656Y-72625675D01*
X138495118Y-72369305D01*
X138544319Y-72102933D01*
X138554212Y-71832235D01*
X138524586Y-71562982D01*
X138456072Y-71300912D01*
X138350130Y-71051610D01*
X138209018Y-70820390D01*
X138180772Y-70786449D01*
X138035746Y-70612181D01*
X137834007Y-70431422D01*
X137834004Y-70431420D01*
X137834002Y-70431418D01*
X137684489Y-70332501D01*
X137608086Y-70281953D01*
X137362822Y-70166979D01*
X137103444Y-70088943D01*
X137103428Y-70088939D01*
X136835440Y-70049500D01*
X136835439Y-70049500D01*
X136632369Y-70049500D01*
X136429848Y-70064322D01*
X136165450Y-70123219D01*
X135912439Y-70219987D01*
X135676219Y-70352561D01*
X135461826Y-70518108D01*
X135273814Y-70713119D01*
X135116199Y-70933422D01*
X134992342Y-71174328D01*
X134904884Y-71430687D01*
X134904881Y-71430698D01*
X134855680Y-71697069D01*
X134845788Y-71967765D01*
X131900499Y-71967765D01*
X131900499Y-71901102D01*
X131900549Y-71898882D01*
X131903542Y-71832235D01*
X131917474Y-71522028D01*
X131919826Y-71471164D01*
X131920216Y-71466855D01*
X131957172Y-71194040D01*
X131978905Y-71038239D01*
X131979669Y-71034079D01*
X132036192Y-70786434D01*
X132077112Y-70612456D01*
X132078195Y-70608580D01*
X132153929Y-70375498D01*
X132213606Y-70197445D01*
X132214996Y-70193794D01*
X132309388Y-69972951D01*
X132387269Y-69796570D01*
X132388932Y-69793171D01*
X132501230Y-69584486D01*
X132596639Y-69413195D01*
X132598555Y-69410040D01*
X132727962Y-69213997D01*
X132840006Y-69050434D01*
X132842082Y-69047627D01*
X132987639Y-68865103D01*
X133115327Y-68711335D01*
X133117572Y-68708817D01*
X133277822Y-68541208D01*
X133278447Y-68540570D01*
X133420298Y-68398719D01*
X133422677Y-68396494D01*
X133596646Y-68244502D01*
X133597471Y-68243800D01*
X133752427Y-68115127D01*
X133754886Y-68113215D01*
X133941183Y-67977863D01*
X133942222Y-67977130D01*
X134108947Y-67862921D01*
X134111452Y-67861316D01*
X134308690Y-67743472D01*
X134309877Y-67742787D01*
X134486874Y-67644200D01*
X134489437Y-67642871D01*
X134696080Y-67543357D01*
X134697348Y-67542771D01*
X134883149Y-67460732D01*
X134885601Y-67459732D01*
X135100059Y-67379244D01*
X135101549Y-67378714D01*
X135294403Y-67314077D01*
X135296801Y-67313345D01*
X135517339Y-67252480D01*
X135519103Y-67252029D01*
X135717198Y-67205437D01*
X135719570Y-67204943D01*
X135944537Y-67164118D01*
X135946446Y-67163811D01*
X136148139Y-67135676D01*
X136150403Y-67135417D01*
X136378069Y-67114927D01*
X136380040Y-67114792D01*
X136583506Y-67105385D01*
X136585785Y-67105333D01*
X136814215Y-67105333D01*
X136816493Y-67105385D01*
X137019953Y-67114792D01*
X137021937Y-67114927D01*
X137249586Y-67135416D01*
X137251869Y-67135678D01*
X137453538Y-67163809D01*
X137455478Y-67164121D01*
X137680412Y-67204940D01*
X137682816Y-67205441D01*
X137880871Y-67252023D01*
X137882686Y-67252487D01*
X138103178Y-67313339D01*
X138105616Y-67314083D01*
X138298415Y-67378703D01*
X138299979Y-67379259D01*
X138514373Y-67459722D01*
X138516875Y-67460743D01*
X138702605Y-67542751D01*
X138703969Y-67543381D01*
X138853803Y-67615538D01*
X138910540Y-67642861D01*
X138913151Y-67644215D01*
X139090095Y-67742773D01*
X139091368Y-67743507D01*
X139288517Y-67861298D01*
X139291083Y-67862942D01*
X139457720Y-67977091D01*
X139458841Y-67977882D01*
X139645078Y-68113190D01*
X139647606Y-68115155D01*
X139802491Y-68243771D01*
X139803434Y-68244573D01*
X139977291Y-68396467D01*
X139979715Y-68398734D01*
X140121505Y-68540524D01*
X140122282Y-68541318D01*
X140282397Y-68708785D01*
X140284702Y-68711371D01*
X140412381Y-68865130D01*
X140486016Y-68957465D01*
X140557890Y-69047592D01*
X140560018Y-69050470D01*
X140672049Y-69214015D01*
X140801432Y-69410023D01*
X140803365Y-69413206D01*
X140898792Y-69584530D01*
X141011050Y-69793139D01*
X141012744Y-69796603D01*
X141090662Y-69973072D01*
X141184985Y-70193751D01*
X141186403Y-70197477D01*
X141246104Y-70375602D01*
X141321788Y-70608530D01*
X141322896Y-70612495D01*
X141363809Y-70786449D01*
X141420326Y-71034067D01*
X141421093Y-71038245D01*
X141442874Y-71194379D01*
X141479779Y-71466828D01*
X141480174Y-71471188D01*
X141482538Y-71522321D01*
X141490386Y-71697067D01*
X141499450Y-71898883D01*
X141499500Y-71901104D01*
X141499500Y-89698895D01*
X141499450Y-89701110D01*
X141498052Y-89732235D01*
X141482540Y-90077651D01*
X141480174Y-90128810D01*
X141479779Y-90133170D01*
X141442874Y-90405620D01*
X141421093Y-90561753D01*
X141420326Y-90565931D01*
X141363809Y-90813549D01*
X141322896Y-90987503D01*
X141321788Y-90991468D01*
X141246104Y-91224396D01*
X141186403Y-91402521D01*
X141184985Y-91406247D01*
X141090662Y-91626926D01*
X141012744Y-91803395D01*
X141011050Y-91806859D01*
X140898792Y-92015468D01*
X140803365Y-92186792D01*
X140801432Y-92189975D01*
X140672049Y-92385983D01*
X140560018Y-92549528D01*
X140557881Y-92552418D01*
X140412381Y-92734868D01*
X140284702Y-92888627D01*
X140282397Y-92891213D01*
X140122282Y-93058680D01*
X140121505Y-93059474D01*
X139979715Y-93201264D01*
X139977281Y-93203540D01*
X139803436Y-93355423D01*
X139802491Y-93356227D01*
X139647606Y-93484843D01*
X139645078Y-93486808D01*
X139458841Y-93622116D01*
X139457720Y-93622907D01*
X139291083Y-93737056D01*
X139288496Y-93738713D01*
X139091397Y-93856474D01*
X139090095Y-93857225D01*
X138913151Y-93955783D01*
X138910540Y-93957137D01*
X138703997Y-94056604D01*
X138702513Y-94057289D01*
X138516925Y-94139234D01*
X138514323Y-94140296D01*
X138300015Y-94220726D01*
X138298353Y-94221317D01*
X138105673Y-94285897D01*
X138103111Y-94286679D01*
X137882700Y-94347507D01*
X137880865Y-94347976D01*
X137682853Y-94394549D01*
X137680358Y-94395069D01*
X137455508Y-94435872D01*
X137453509Y-94436193D01*
X137251920Y-94464314D01*
X137249518Y-94464589D01*
X137022011Y-94485065D01*
X137019859Y-94485211D01*
X136816492Y-94494614D01*
X136814216Y-94494667D01*
X136585784Y-94494667D01*
X136583507Y-94494614D01*
X136380134Y-94485211D01*
X136377987Y-94485065D01*
X136150480Y-94464589D01*
X136148078Y-94464314D01*
X135946489Y-94436193D01*
X135944490Y-94435872D01*
X135719640Y-94395069D01*
X135717145Y-94394549D01*
X135519133Y-94347976D01*
X135517298Y-94347507D01*
X135363053Y-94304939D01*
X135296869Y-94286673D01*
X135294336Y-94285900D01*
X135101647Y-94221317D01*
X135099983Y-94220726D01*
X134973915Y-94173412D01*
X134885663Y-94140291D01*
X134883089Y-94139240D01*
X134697448Y-94057272D01*
X134696001Y-94056604D01*
X134489458Y-93957137D01*
X134486847Y-93955783D01*
X134309903Y-93857225D01*
X134308601Y-93856474D01*
X134111502Y-93738713D01*
X134108915Y-93737056D01*
X133942278Y-93622907D01*
X133941157Y-93622116D01*
X133754920Y-93486808D01*
X133752392Y-93484843D01*
X133597507Y-93356227D01*
X133596562Y-93355423D01*
X133422717Y-93203540D01*
X133420283Y-93201264D01*
X133278493Y-93059474D01*
X133277716Y-93058680D01*
X133241489Y-93020790D01*
X133117598Y-92891210D01*
X133115296Y-92888627D01*
X132987617Y-92734868D01*
X132954355Y-92693159D01*
X132842102Y-92552398D01*
X132839987Y-92549538D01*
X132727949Y-92385983D01*
X132598566Y-92189975D01*
X132596633Y-92186792D01*
X132501206Y-92015468D01*
X132388948Y-91806859D01*
X132387260Y-91803408D01*
X132309357Y-91626974D01*
X132215003Y-91406222D01*
X132213601Y-91402537D01*
X132153933Y-91224513D01*
X132078199Y-90991431D01*
X132077109Y-90987531D01*
X132036189Y-90813549D01*
X131979671Y-90565929D01*
X131978905Y-90561753D01*
X131957166Y-90405917D01*
X131920216Y-90133146D01*
X131919826Y-90128833D01*
X131917494Y-90078414D01*
X131908034Y-89867765D01*
X134845788Y-89867765D01*
X134875414Y-90137020D01*
X134909997Y-90269301D01*
X134943928Y-90399088D01*
X135049870Y-90648390D01*
X135121999Y-90766577D01*
X135190983Y-90879612D01*
X135364253Y-91087818D01*
X135364255Y-91087820D01*
X135565998Y-91268582D01*
X135744115Y-91386423D01*
X135791913Y-91418046D01*
X135924100Y-91480012D01*
X136037176Y-91533020D01*
X136182628Y-91576780D01*
X136296555Y-91611056D01*
X136296559Y-91611057D01*
X136296569Y-91611060D01*
X136463840Y-91635677D01*
X136564560Y-91650500D01*
X136564561Y-91650500D01*
X136767631Y-91650500D01*
X136970156Y-91635677D01*
X137234553Y-91576780D01*
X137487558Y-91480014D01*
X137723777Y-91347441D01*
X137938177Y-91181888D01*
X138126186Y-90986881D01*
X138283799Y-90766579D01*
X138407656Y-90525675D01*
X138495118Y-90269305D01*
X138544319Y-90002933D01*
X138554212Y-89732235D01*
X138524586Y-89462982D01*
X138456072Y-89200912D01*
X138350130Y-88951610D01*
X138209018Y-88720390D01*
X138035745Y-88512180D01*
X137930754Y-88418108D01*
X137834007Y-88331422D01*
X137834004Y-88331420D01*
X137834002Y-88331418D01*
X137684489Y-88232501D01*
X137608086Y-88181953D01*
X137362822Y-88066979D01*
X137103444Y-87988943D01*
X137103428Y-87988939D01*
X136835440Y-87949500D01*
X136835439Y-87949500D01*
X136632369Y-87949500D01*
X136429848Y-87964322D01*
X136165450Y-88023219D01*
X135912439Y-88119987D01*
X135676219Y-88252561D01*
X135461826Y-88418108D01*
X135273814Y-88613119D01*
X135116199Y-88833422D01*
X134992342Y-89074328D01*
X134904884Y-89330687D01*
X134904881Y-89330698D01*
X134855680Y-89597069D01*
X134845788Y-89867765D01*
X131908034Y-89867765D01*
X131900549Y-89701109D01*
X131900500Y-89698896D01*
X131900500Y-87219787D01*
X131900527Y-87219651D01*
X131900539Y-87200002D01*
X131900541Y-87200000D01*
X131900383Y-87199617D01*
X131900099Y-87199500D01*
X131900000Y-87199459D01*
X131899999Y-87199459D01*
X131880418Y-87199459D01*
X131880212Y-87199500D01*
X116419788Y-87199500D01*
X116419582Y-87199459D01*
X116400001Y-87199459D01*
X116400000Y-87199459D01*
X116399901Y-87199500D01*
X116399699Y-87199583D01*
X116399616Y-87199617D01*
X116399459Y-87199999D01*
X116399472Y-87219651D01*
X116399500Y-87219787D01*
X116399500Y-89698895D01*
X116399450Y-89701110D01*
X116398052Y-89732235D01*
X116382540Y-90077651D01*
X116380174Y-90128810D01*
X116379779Y-90133170D01*
X116342874Y-90405620D01*
X116321093Y-90561753D01*
X116320326Y-90565931D01*
X116263809Y-90813549D01*
X116222896Y-90987503D01*
X116221788Y-90991468D01*
X116146104Y-91224396D01*
X116086403Y-91402521D01*
X116084985Y-91406247D01*
X115990662Y-91626926D01*
X115912744Y-91803395D01*
X115911050Y-91806859D01*
X115798792Y-92015468D01*
X115703365Y-92186792D01*
X115701432Y-92189975D01*
X115572049Y-92385983D01*
X115460018Y-92549528D01*
X115457881Y-92552418D01*
X115312381Y-92734868D01*
X115184702Y-92888627D01*
X115182397Y-92891213D01*
X115022282Y-93058680D01*
X115021505Y-93059474D01*
X114879715Y-93201264D01*
X114877281Y-93203540D01*
X114703436Y-93355423D01*
X114702491Y-93356227D01*
X114547606Y-93484843D01*
X114545078Y-93486808D01*
X114358841Y-93622116D01*
X114357720Y-93622907D01*
X114191083Y-93737056D01*
X114188496Y-93738713D01*
X113991397Y-93856474D01*
X113990095Y-93857225D01*
X113813151Y-93955783D01*
X113810540Y-93957137D01*
X113603997Y-94056604D01*
X113602513Y-94057289D01*
X113416925Y-94139234D01*
X113414323Y-94140296D01*
X113200015Y-94220726D01*
X113198353Y-94221317D01*
X113005673Y-94285897D01*
X113003111Y-94286679D01*
X112782700Y-94347507D01*
X112780865Y-94347976D01*
X112582853Y-94394549D01*
X112580358Y-94395069D01*
X112355508Y-94435872D01*
X112353509Y-94436193D01*
X112151920Y-94464314D01*
X112149518Y-94464589D01*
X111922011Y-94485065D01*
X111919859Y-94485211D01*
X111716492Y-94494614D01*
X111714216Y-94494667D01*
X111485784Y-94494667D01*
X111483507Y-94494614D01*
X111280134Y-94485211D01*
X111277987Y-94485065D01*
X111050480Y-94464589D01*
X111048078Y-94464314D01*
X110846489Y-94436193D01*
X110844490Y-94435872D01*
X110619640Y-94395069D01*
X110617145Y-94394549D01*
X110419133Y-94347976D01*
X110417298Y-94347507D01*
X110263053Y-94304939D01*
X110196869Y-94286673D01*
X110194336Y-94285900D01*
X110001647Y-94221317D01*
X109999983Y-94220726D01*
X109873915Y-94173412D01*
X109785663Y-94140291D01*
X109783089Y-94139240D01*
X109597448Y-94057272D01*
X109596001Y-94056604D01*
X109389458Y-93957137D01*
X109386847Y-93955783D01*
X109209903Y-93857225D01*
X109208601Y-93856474D01*
X109011502Y-93738713D01*
X109008915Y-93737056D01*
X108842278Y-93622907D01*
X108841157Y-93622116D01*
X108654920Y-93486808D01*
X108652392Y-93484843D01*
X108497507Y-93356227D01*
X108496562Y-93355423D01*
X108322717Y-93203540D01*
X108320283Y-93201264D01*
X108178493Y-93059474D01*
X108177716Y-93058680D01*
X108141489Y-93020790D01*
X108017598Y-92891210D01*
X108015296Y-92888627D01*
X107887617Y-92734868D01*
X107854355Y-92693159D01*
X107742102Y-92552398D01*
X107739987Y-92549538D01*
X107627949Y-92385983D01*
X107498566Y-92189975D01*
X107496633Y-92186792D01*
X107401206Y-92015468D01*
X107288948Y-91806859D01*
X107287260Y-91803408D01*
X107209357Y-91626974D01*
X107115003Y-91406222D01*
X107113601Y-91402537D01*
X107053933Y-91224513D01*
X106978199Y-90991431D01*
X106977109Y-90987531D01*
X106936189Y-90813549D01*
X106879671Y-90565929D01*
X106878905Y-90561753D01*
X106857166Y-90405917D01*
X106820216Y-90133146D01*
X106819826Y-90128833D01*
X106817494Y-90078414D01*
X106808034Y-89867765D01*
X109745788Y-89867765D01*
X109775414Y-90137020D01*
X109809997Y-90269301D01*
X109843928Y-90399088D01*
X109949870Y-90648390D01*
X110021999Y-90766577D01*
X110090983Y-90879612D01*
X110264253Y-91087818D01*
X110264255Y-91087820D01*
X110465998Y-91268582D01*
X110644115Y-91386423D01*
X110691913Y-91418046D01*
X110824100Y-91480012D01*
X110937176Y-91533020D01*
X111082628Y-91576780D01*
X111196555Y-91611056D01*
X111196559Y-91611057D01*
X111196569Y-91611060D01*
X111363840Y-91635677D01*
X111464560Y-91650500D01*
X111464561Y-91650500D01*
X111667631Y-91650500D01*
X111870156Y-91635677D01*
X112134553Y-91576780D01*
X112387558Y-91480014D01*
X112623777Y-91347441D01*
X112838177Y-91181888D01*
X113026186Y-90986881D01*
X113183799Y-90766579D01*
X113307656Y-90525675D01*
X113395118Y-90269305D01*
X113444319Y-90002933D01*
X113454212Y-89732235D01*
X113424586Y-89462982D01*
X113356072Y-89200912D01*
X113250130Y-88951610D01*
X113109018Y-88720390D01*
X112935745Y-88512180D01*
X112830754Y-88418108D01*
X112734007Y-88331422D01*
X112734004Y-88331420D01*
X112734002Y-88331418D01*
X112584489Y-88232501D01*
X112508086Y-88181953D01*
X112262822Y-88066979D01*
X112003444Y-87988943D01*
X112003428Y-87988939D01*
X111735440Y-87949500D01*
X111735439Y-87949500D01*
X111532369Y-87949500D01*
X111329848Y-87964322D01*
X111065450Y-88023219D01*
X110812439Y-88119987D01*
X110576219Y-88252561D01*
X110361826Y-88418108D01*
X110173814Y-88613119D01*
X110016199Y-88833422D01*
X109892342Y-89074328D01*
X109804884Y-89330687D01*
X109804881Y-89330698D01*
X109755680Y-89597069D01*
X109745788Y-89867765D01*
X106808034Y-89867765D01*
X106800549Y-89701109D01*
X106800500Y-89698896D01*
X106800500Y-83790000D01*
X112974534Y-83790000D01*
X112994313Y-83940236D01*
X113052302Y-84080233D01*
X113144549Y-84200451D01*
X113264767Y-84292698D01*
X113404764Y-84350687D01*
X113517280Y-84365500D01*
X113517281Y-84365500D01*
X113592719Y-84365500D01*
X113592720Y-84365500D01*
X113705236Y-84350687D01*
X113845233Y-84292698D01*
X113965451Y-84200451D01*
X114057698Y-84080233D01*
X114115687Y-83940236D01*
X114135466Y-83790000D01*
X114115687Y-83639764D01*
X114057698Y-83499767D01*
X113965451Y-83379549D01*
X113845233Y-83287302D01*
X113705236Y-83229313D01*
X113705234Y-83229312D01*
X113705232Y-83229312D01*
X113592720Y-83214500D01*
X113517280Y-83214500D01*
X113517279Y-83214500D01*
X113404767Y-83229312D01*
X113404761Y-83229314D01*
X113264768Y-83287301D01*
X113144551Y-83379547D01*
X113144547Y-83379551D01*
X113052301Y-83499768D01*
X112994314Y-83639761D01*
X112994312Y-83639767D01*
X112974534Y-83789999D01*
X112974534Y-83790000D01*
X106800500Y-83790000D01*
X106800500Y-81356108D01*
X112238210Y-81356108D01*
X112258847Y-81512866D01*
X112258849Y-81512874D01*
X112319354Y-81658946D01*
X112319354Y-81658947D01*
X112415605Y-81784384D01*
X112415610Y-81784390D01*
X112541051Y-81880644D01*
X112541052Y-81880644D01*
X112541053Y-81880645D01*
X112685479Y-81940468D01*
X112687130Y-81941152D01*
X112791253Y-81954860D01*
X112843891Y-81961790D01*
X112843892Y-81961790D01*
X112843893Y-81961790D01*
X112875244Y-81957662D01*
X113000654Y-81941152D01*
X113146733Y-81880644D01*
X113272174Y-81784390D01*
X113306824Y-81739232D01*
X113357248Y-81704577D01*
X113385366Y-81700500D01*
X116107563Y-81700500D01*
X116165754Y-81719407D01*
X116201718Y-81768907D01*
X116205716Y-81786578D01*
X116214955Y-81856758D01*
X116214957Y-81856766D01*
X116275462Y-82002838D01*
X116275462Y-82002839D01*
X116323492Y-82065433D01*
X116371718Y-82128282D01*
X116497159Y-82224536D01*
X116497160Y-82224536D01*
X116497161Y-82224537D01*
X116643233Y-82285042D01*
X116643238Y-82285044D01*
X116760809Y-82300522D01*
X116799999Y-82305682D01*
X116800000Y-82305682D01*
X116800001Y-82305682D01*
X116831352Y-82301554D01*
X116956762Y-82285044D01*
X117102841Y-82224536D01*
X117228282Y-82128282D01*
X117324536Y-82002841D01*
X117385044Y-81856762D01*
X117405682Y-81700000D01*
X117397408Y-81637151D01*
X123583629Y-81637151D01*
X123604266Y-81793909D01*
X123604268Y-81793917D01*
X123664773Y-81939989D01*
X123664773Y-81939990D01*
X123761024Y-82065427D01*
X123761029Y-82065433D01*
X123886470Y-82161687D01*
X124032549Y-82222195D01*
X124150120Y-82237673D01*
X124189310Y-82242833D01*
X124189311Y-82242833D01*
X124189312Y-82242833D01*
X124220663Y-82238705D01*
X124346073Y-82222195D01*
X124492152Y-82161687D01*
X124617593Y-82065433D01*
X124666739Y-82001383D01*
X124717163Y-81966728D01*
X124745281Y-81962651D01*
X126426475Y-81962651D01*
X126430775Y-81962838D01*
X126471656Y-81966415D01*
X126511301Y-81955791D01*
X126515499Y-81954861D01*
X126555894Y-81947739D01*
X126557194Y-81946989D01*
X126581085Y-81937093D01*
X126581313Y-81937031D01*
X126582533Y-81936705D01*
X126616152Y-81913163D01*
X126619760Y-81910865D01*
X126655304Y-81890345D01*
X126681687Y-81858901D01*
X126684575Y-81855749D01*
X127238582Y-81301742D01*
X127241760Y-81298829D01*
X127273194Y-81272455D01*
X127293714Y-81236911D01*
X127296012Y-81233303D01*
X127319554Y-81199684D01*
X127319941Y-81198236D01*
X127329838Y-81174345D01*
X127330588Y-81173045D01*
X127337709Y-81132656D01*
X127338640Y-81128452D01*
X127349264Y-81088807D01*
X127345687Y-81047922D01*
X127345500Y-81043623D01*
X127345500Y-79215970D01*
X127364407Y-79157779D01*
X127384233Y-79137428D01*
X127448282Y-79088282D01*
X127544536Y-78962841D01*
X127605044Y-78816762D01*
X127625682Y-78660000D01*
X127605044Y-78503238D01*
X127570753Y-78420452D01*
X127544537Y-78357161D01*
X127544537Y-78357160D01*
X127448281Y-78231717D01*
X127384232Y-78182570D01*
X127349577Y-78132145D01*
X127345500Y-78104028D01*
X127345500Y-76891470D01*
X127364407Y-76833279D01*
X127384233Y-76812928D01*
X127448282Y-76763782D01*
X127544536Y-76638341D01*
X127605044Y-76492262D01*
X127625682Y-76335500D01*
X127605044Y-76178738D01*
X127544537Y-76032661D01*
X127544537Y-76032660D01*
X127448286Y-75907223D01*
X127448285Y-75907222D01*
X127448282Y-75907218D01*
X127448277Y-75907214D01*
X127448276Y-75907213D01*
X127322838Y-75810962D01*
X127176766Y-75750457D01*
X127176758Y-75750455D01*
X127020001Y-75729818D01*
X127019999Y-75729818D01*
X126863241Y-75750455D01*
X126863233Y-75750457D01*
X126717161Y-75810962D01*
X126717160Y-75810962D01*
X126591723Y-75907213D01*
X126591713Y-75907223D01*
X126495462Y-76032660D01*
X126495462Y-76032661D01*
X126434957Y-76178733D01*
X126434955Y-76178741D01*
X126414318Y-76335499D01*
X126414318Y-76335500D01*
X126434955Y-76492258D01*
X126434957Y-76492266D01*
X126495462Y-76638338D01*
X126495462Y-76638339D01*
X126495464Y-76638341D01*
X126591718Y-76763782D01*
X126591722Y-76763785D01*
X126655767Y-76812928D01*
X126690423Y-76863352D01*
X126694500Y-76891470D01*
X126694500Y-78104028D01*
X126675593Y-78162219D01*
X126655768Y-78182570D01*
X126591718Y-78231717D01*
X126495462Y-78357160D01*
X126495462Y-78357161D01*
X126434957Y-78503233D01*
X126434955Y-78503241D01*
X126414318Y-78659999D01*
X126414318Y-78660000D01*
X126434955Y-78816758D01*
X126434957Y-78816766D01*
X126495462Y-78962838D01*
X126495462Y-78962839D01*
X126495464Y-78962841D01*
X126591718Y-79088282D01*
X126591722Y-79088285D01*
X126591723Y-79088286D01*
X126655766Y-79137428D01*
X126690422Y-79187853D01*
X126694499Y-79215970D01*
X126694499Y-80884166D01*
X126675592Y-80942357D01*
X126665503Y-80954169D01*
X126337019Y-81282654D01*
X126282502Y-81310432D01*
X126267015Y-81311651D01*
X124745281Y-81311651D01*
X124687090Y-81292744D01*
X124666739Y-81272918D01*
X124666381Y-81272452D01*
X124617593Y-81208869D01*
X124617588Y-81208865D01*
X124617587Y-81208864D01*
X124504495Y-81122086D01*
X124492152Y-81112615D01*
X124492151Y-81112614D01*
X124492149Y-81112613D01*
X124346077Y-81052108D01*
X124346069Y-81052106D01*
X124189312Y-81031469D01*
X124189310Y-81031469D01*
X124032552Y-81052106D01*
X124032544Y-81052108D01*
X123886472Y-81112613D01*
X123886471Y-81112613D01*
X123761034Y-81208864D01*
X123761024Y-81208874D01*
X123664773Y-81334311D01*
X123664773Y-81334312D01*
X123604268Y-81480384D01*
X123604266Y-81480392D01*
X123583629Y-81637150D01*
X123583629Y-81637151D01*
X117397408Y-81637151D01*
X117385044Y-81543238D01*
X117372465Y-81512870D01*
X117324537Y-81397161D01*
X117324537Y-81397160D01*
X117228286Y-81271723D01*
X117228285Y-81271722D01*
X117228282Y-81271718D01*
X117228277Y-81271714D01*
X117228276Y-81271713D01*
X117146382Y-81208874D01*
X117102841Y-81175464D01*
X117102840Y-81175463D01*
X117102838Y-81175462D01*
X116956766Y-81114957D01*
X116956758Y-81114955D01*
X116800001Y-81094318D01*
X116799999Y-81094318D01*
X116700348Y-81107437D01*
X116643238Y-81114956D01*
X116643237Y-81114956D01*
X116636805Y-81115803D01*
X116636571Y-81114027D01*
X116599065Y-81114600D01*
X116592464Y-81113048D01*
X116585904Y-81111017D01*
X116556174Y-81099499D01*
X116551918Y-81098704D01*
X116498193Y-81069423D01*
X116471940Y-81014157D01*
X116483185Y-80954014D01*
X116503425Y-80928221D01*
X116505944Y-80925923D01*
X116505952Y-80925919D01*
X116525165Y-80900474D01*
X116529662Y-80895308D01*
X116540804Y-80884166D01*
X116605791Y-80819178D01*
X116660306Y-80791403D01*
X116688714Y-80791031D01*
X116743804Y-80798283D01*
X116799999Y-80805682D01*
X116800000Y-80805682D01*
X116800001Y-80805682D01*
X116831352Y-80801554D01*
X116956762Y-80785044D01*
X117102841Y-80724536D01*
X117228282Y-80628282D01*
X117324536Y-80502841D01*
X117385044Y-80356762D01*
X117405682Y-80200000D01*
X117385044Y-80043238D01*
X117324537Y-79897161D01*
X117324537Y-79897160D01*
X117228286Y-79771723D01*
X117228285Y-79771722D01*
X117228282Y-79771718D01*
X117228277Y-79771714D01*
X117228276Y-79771713D01*
X117102838Y-79675462D01*
X116956766Y-79614957D01*
X116956758Y-79614955D01*
X116800001Y-79594318D01*
X116799999Y-79594318D01*
X116643241Y-79614955D01*
X116643233Y-79614957D01*
X116497161Y-79675462D01*
X116497160Y-79675462D01*
X116371723Y-79771713D01*
X116371713Y-79771723D01*
X116275462Y-79897160D01*
X116275462Y-79897161D01*
X116214957Y-80043233D01*
X116214955Y-80043241D01*
X116208231Y-80094318D01*
X116194318Y-80200000D01*
X116203760Y-80271723D01*
X116205848Y-80287578D01*
X116194698Y-80347739D01*
X116150316Y-80389856D01*
X116107695Y-80399500D01*
X114175154Y-80399500D01*
X114116963Y-80380593D01*
X114096612Y-80360767D01*
X114028286Y-80271723D01*
X114028285Y-80271722D01*
X114028282Y-80271718D01*
X114028277Y-80271714D01*
X114028276Y-80271713D01*
X113902838Y-80175462D01*
X113756766Y-80114957D01*
X113756758Y-80114955D01*
X113600001Y-80094318D01*
X113599999Y-80094318D01*
X113443241Y-80114955D01*
X113443233Y-80114957D01*
X113297161Y-80175462D01*
X113297160Y-80175462D01*
X113171723Y-80271713D01*
X113171713Y-80271723D01*
X113075462Y-80397160D01*
X113075462Y-80397161D01*
X113014957Y-80543233D01*
X113014955Y-80543240D01*
X112998151Y-80670881D01*
X112971810Y-80726105D01*
X112918039Y-80755300D01*
X112887076Y-80756111D01*
X112843893Y-80750426D01*
X112843891Y-80750426D01*
X112687133Y-80771063D01*
X112687125Y-80771065D01*
X112541053Y-80831570D01*
X112541052Y-80831570D01*
X112415615Y-80927821D01*
X112415605Y-80927831D01*
X112319354Y-81053268D01*
X112319354Y-81053269D01*
X112258849Y-81199341D01*
X112258847Y-81199349D01*
X112238210Y-81356107D01*
X112238210Y-81356108D01*
X106800500Y-81356108D01*
X106800500Y-78010000D01*
X112974534Y-78010000D01*
X112993340Y-78152850D01*
X112994313Y-78160236D01*
X113052302Y-78300233D01*
X113144549Y-78420451D01*
X113264767Y-78512698D01*
X113404764Y-78570687D01*
X113517280Y-78585500D01*
X113517281Y-78585500D01*
X113592719Y-78585500D01*
X113592720Y-78585500D01*
X113705236Y-78570687D01*
X113845233Y-78512698D01*
X113965451Y-78420451D01*
X114057698Y-78300233D01*
X114115687Y-78160236D01*
X114135466Y-78010000D01*
X114115687Y-77859764D01*
X114057698Y-77719767D01*
X113965451Y-77599549D01*
X113845233Y-77507302D01*
X113705236Y-77449313D01*
X113705234Y-77449312D01*
X113705232Y-77449312D01*
X113592720Y-77434500D01*
X113517280Y-77434500D01*
X113517279Y-77434500D01*
X113404767Y-77449312D01*
X113404761Y-77449314D01*
X113264768Y-77507301D01*
X113144551Y-77599547D01*
X113144547Y-77599551D01*
X113052301Y-77719768D01*
X112994314Y-77859761D01*
X112994312Y-77859767D01*
X112974534Y-78009999D01*
X112974534Y-78010000D01*
X106800500Y-78010000D01*
X106800500Y-71967765D01*
X109745788Y-71967765D01*
X109775414Y-72237020D01*
X109809997Y-72369301D01*
X109843928Y-72499088D01*
X109949870Y-72748390D01*
X110021999Y-72866577D01*
X110090983Y-72979612D01*
X110180252Y-73086880D01*
X110264255Y-73187820D01*
X110465998Y-73368582D01*
X110688624Y-73515870D01*
X110691913Y-73518046D01*
X110824100Y-73580012D01*
X110937176Y-73633020D01*
X111082628Y-73676780D01*
X111196555Y-73711056D01*
X111196559Y-73711057D01*
X111196569Y-73711060D01*
X111363840Y-73735677D01*
X111464560Y-73750500D01*
X111464561Y-73750500D01*
X111667631Y-73750500D01*
X111870156Y-73735677D01*
X112134553Y-73676780D01*
X112387558Y-73580014D01*
X112623777Y-73447441D01*
X112838177Y-73281888D01*
X113026186Y-73086881D01*
X113183799Y-72866579D01*
X113307656Y-72625675D01*
X113395118Y-72369305D01*
X113444319Y-72102933D01*
X113454212Y-71832235D01*
X113424586Y-71562982D01*
X113356072Y-71300912D01*
X113250130Y-71051610D01*
X113109018Y-70820390D01*
X113080772Y-70786449D01*
X112935746Y-70612181D01*
X112734007Y-70431422D01*
X112734004Y-70431420D01*
X112734002Y-70431418D01*
X112584489Y-70332501D01*
X112508086Y-70281953D01*
X112262822Y-70166979D01*
X112003444Y-70088943D01*
X112003428Y-70088939D01*
X111735440Y-70049500D01*
X111735439Y-70049500D01*
X111532369Y-70049500D01*
X111329848Y-70064322D01*
X111065450Y-70123219D01*
X110812439Y-70219987D01*
X110576219Y-70352561D01*
X110361826Y-70518108D01*
X110173814Y-70713119D01*
X110016199Y-70933422D01*
X109892342Y-71174328D01*
X109804884Y-71430687D01*
X109804881Y-71430698D01*
X109755680Y-71697069D01*
X109745788Y-71967765D01*
X106800500Y-71967765D01*
X106800500Y-71901103D01*
X106800550Y-71898882D01*
X106809613Y-71697069D01*
X106817478Y-71521932D01*
X106819826Y-71471162D01*
X106820216Y-71466857D01*
X106857172Y-71194040D01*
X106878905Y-71038239D01*
X106879669Y-71034079D01*
X106936192Y-70786434D01*
X106977112Y-70612456D01*
X106978195Y-70608580D01*
X107053929Y-70375498D01*
X107113606Y-70197445D01*
X107114996Y-70193794D01*
X107209388Y-69972951D01*
X107287269Y-69796570D01*
X107288932Y-69793171D01*
X107401230Y-69584486D01*
X107496639Y-69413195D01*
X107498555Y-69410040D01*
X107627962Y-69213997D01*
X107740006Y-69050434D01*
X107742082Y-69047627D01*
X107887639Y-68865103D01*
X108015327Y-68711335D01*
X108017572Y-68708817D01*
X108177822Y-68541208D01*
X108178447Y-68540570D01*
X108320298Y-68398719D01*
X108322677Y-68396494D01*
X108496646Y-68244502D01*
X108497471Y-68243800D01*
X108652427Y-68115127D01*
X108654886Y-68113215D01*
X108841183Y-67977863D01*
X108842222Y-67977130D01*
X109008947Y-67862921D01*
X109011452Y-67861316D01*
X109208690Y-67743472D01*
X109209877Y-67742787D01*
X109386874Y-67644200D01*
X109389437Y-67642871D01*
X109596080Y-67543357D01*
X109597348Y-67542771D01*
X109783149Y-67460732D01*
X109785601Y-67459732D01*
X110000059Y-67379244D01*
X110001549Y-67378714D01*
X110194403Y-67314077D01*
X110196801Y-67313345D01*
X110417339Y-67252480D01*
X110419103Y-67252029D01*
X110617198Y-67205437D01*
X110619570Y-67204943D01*
X110844537Y-67164118D01*
X110846446Y-67163811D01*
X111048139Y-67135676D01*
X111050403Y-67135417D01*
X111278069Y-67114927D01*
X111280040Y-67114792D01*
X111483506Y-67105385D01*
X111485785Y-67105333D01*
X111714215Y-67105333D01*
X111716493Y-67105385D01*
G37*
%TD.AperFunction*%
%TD*%
M02*
