%TF.GenerationSoftware,KiCad,Pcbnew,7.0.5*%
%TF.CreationDate,2023-07-02T14:02:18+02:00*%
%TF.ProjectId,usb_to_serial_converter,7573625f-746f-45f7-9365-7269616c5f63,rev?*%
%TF.SameCoordinates,Original*%
%TF.FileFunction,Soldermask,Top*%
%TF.FilePolarity,Negative*%
%FSLAX46Y46*%
G04 Gerber Fmt 4.6, Leading zero omitted, Abs format (unit mm)*
G04 Created by KiCad (PCBNEW 7.0.5) date 2023-07-02 14:02:18*
%MOMM*%
%LPD*%
G01*
G04 APERTURE LIST*
G04 Aperture macros list*
%AMRoundRect*
0 Rectangle with rounded corners*
0 $1 Rounding radius*
0 $2 $3 $4 $5 $6 $7 $8 $9 X,Y pos of 4 corners*
0 Add a 4 corners polygon primitive as box body*
4,1,4,$2,$3,$4,$5,$6,$7,$8,$9,$2,$3,0*
0 Add four circle primitives for the rounded corners*
1,1,$1+$1,$2,$3*
1,1,$1+$1,$4,$5*
1,1,$1+$1,$6,$7*
1,1,$1+$1,$8,$9*
0 Add four rect primitives between the rounded corners*
20,1,$1+$1,$2,$3,$4,$5,0*
20,1,$1+$1,$4,$5,$6,$7,0*
20,1,$1+$1,$6,$7,$8,$9,0*
20,1,$1+$1,$8,$9,$2,$3,0*%
%AMFreePoly0*
4,1,19,0.550000,-0.750000,0.000000,-0.750000,0.000000,-0.744911,-0.071157,-0.744911,-0.207708,-0.704816,-0.327430,-0.627875,-0.420627,-0.520320,-0.479746,-0.390866,-0.500000,-0.250000,-0.500000,0.250000,-0.479746,0.390866,-0.420627,0.520320,-0.327430,0.627875,-0.207708,0.704816,-0.071157,0.744911,0.000000,0.744911,0.000000,0.750000,0.550000,0.750000,0.550000,-0.750000,0.550000,-0.750000,
$1*%
%AMFreePoly1*
4,1,19,0.000000,0.744911,0.071157,0.744911,0.207708,0.704816,0.327430,0.627875,0.420627,0.520320,0.479746,0.390866,0.500000,0.250000,0.500000,-0.250000,0.479746,-0.390866,0.420627,-0.520320,0.327430,-0.627875,0.207708,-0.704816,0.071157,-0.744911,0.000000,-0.744911,0.000000,-0.750000,-0.550000,-0.750000,-0.550000,0.750000,0.000000,0.750000,0.000000,0.744911,0.000000,0.744911,
$1*%
G04 Aperture macros list end*
%ADD10RoundRect,0.200000X-0.200000X-0.275000X0.200000X-0.275000X0.200000X0.275000X-0.200000X0.275000X0*%
%ADD11C,3.200000*%
%ADD12FreePoly0,90.000000*%
%ADD13R,1.500000X1.000000*%
%ADD14FreePoly1,90.000000*%
%ADD15R,3.000000X1.000000*%
%ADD16RoundRect,0.225000X-0.225000X-0.250000X0.225000X-0.250000X0.225000X0.250000X-0.225000X0.250000X0*%
%ADD17C,0.650000*%
%ADD18R,1.450000X0.600000*%
%ADD19R,1.450000X0.300000*%
%ADD20O,2.100000X1.000000*%
%ADD21O,1.600000X1.000000*%
%ADD22RoundRect,0.225000X-0.250000X0.225000X-0.250000X-0.225000X0.250000X-0.225000X0.250000X0.225000X0*%
%ADD23RoundRect,0.200000X-0.275000X0.200000X-0.275000X-0.200000X0.275000X-0.200000X0.275000X0.200000X0*%
%ADD24RoundRect,0.007500X0.117500X-0.412500X0.117500X0.412500X-0.117500X0.412500X-0.117500X-0.412500X0*%
%ADD25R,2.500000X1.600000*%
%ADD26RoundRect,0.218750X0.256250X-0.218750X0.256250X0.218750X-0.256250X0.218750X-0.256250X-0.218750X0*%
%ADD27RoundRect,0.250000X-0.250000X-0.475000X0.250000X-0.475000X0.250000X0.475000X-0.250000X0.475000X0*%
G04 APERTURE END LIST*
D10*
%TO.C,R2*%
X117775000Y-78700000D03*
X119425000Y-78700000D03*
%TD*%
D11*
%TO.C,H2*%
X136700000Y-71900000D03*
%TD*%
D12*
%TO.C,JP1*%
X130820000Y-85760000D03*
D13*
X130820000Y-84460000D03*
D14*
X130820000Y-83160000D03*
%TD*%
D15*
%TO.C,J3*%
X134400000Y-83400000D03*
X139440000Y-83400000D03*
X134400000Y-80860000D03*
X139440000Y-80860000D03*
X134400000Y-78320000D03*
X139440000Y-78320000D03*
%TD*%
D16*
%TO.C,C2*%
X125045000Y-82660000D03*
X126595000Y-82660000D03*
%TD*%
D11*
%TO.C,H4*%
X111600000Y-71900000D03*
%TD*%
D10*
%TO.C,R4*%
X117775000Y-80200000D03*
X119425000Y-80200000D03*
%TD*%
D17*
%TO.C,J1*%
X113555000Y-78010000D03*
X113555000Y-83790000D03*
D18*
X115000000Y-77650000D03*
X115000000Y-78450000D03*
D19*
X115000000Y-79650000D03*
X115000000Y-80650000D03*
X115000000Y-81150000D03*
X115000000Y-82150000D03*
D18*
X115000000Y-83350000D03*
X115000000Y-84150000D03*
X115000000Y-84150000D03*
X115000000Y-83350000D03*
D19*
X115000000Y-82650000D03*
X115000000Y-81650000D03*
X115000000Y-80150000D03*
X115000000Y-79150000D03*
D18*
X115000000Y-78450000D03*
X115000000Y-77650000D03*
D20*
X114085000Y-76580000D03*
D21*
X109905000Y-76580000D03*
D20*
X114085000Y-85220000D03*
D21*
X109905000Y-85220000D03*
%TD*%
D22*
%TO.C,C3*%
X130020000Y-78685000D03*
X130020000Y-80235000D03*
%TD*%
D23*
%TO.C,R5*%
X128520000Y-81735000D03*
X128520000Y-83385000D03*
%TD*%
D10*
%TO.C,R1*%
X117775000Y-83200000D03*
X119425000Y-83200000D03*
%TD*%
D11*
%TO.C,H1*%
X136700000Y-89800000D03*
%TD*%
D24*
%TO.C,U1*%
X123720000Y-80730000D03*
X124170000Y-80730000D03*
X124620000Y-80730000D03*
X125070000Y-80730000D03*
X125520000Y-80730000D03*
X125970000Y-80730000D03*
X125970000Y-77860000D03*
X125520000Y-77860000D03*
X125070000Y-77860000D03*
X124620000Y-77860000D03*
X124170000Y-77860000D03*
X123720000Y-77860000D03*
D25*
X124845000Y-79295000D03*
%TD*%
D10*
%TO.C,R3*%
X117775000Y-81700000D03*
X119425000Y-81700000D03*
%TD*%
D26*
%TO.C,D1*%
X128520000Y-80247500D03*
X128520000Y-78672500D03*
%TD*%
D11*
%TO.C,H3*%
X111600000Y-89800000D03*
%TD*%
D27*
%TO.C,C1*%
X125020000Y-84460000D03*
X126920000Y-84460000D03*
%TD*%
M02*
