M48
; DRILL file {KiCad 7.0.5} date Sun Jul  2 14:02:21 2023
; FORMAT={-:-/ absolute / inch / decimal}
; #@! TF.CreationDate,2023-07-02T14:02:21+02:00
; #@! TF.GenerationSoftware,Kicad,Pcbnew,7.0.5
; #@! TF.FileFunction,Plated,1,2,PTH
FMAT,2
INCH
; #@! TA.AperFunction,Plated,PTH,ViaDrill
T1C0.0118
; #@! TA.AperFunction,Plated,PTH,ViaDrill
T2C0.0157
; #@! TA.AperFunction,Plated,PTH,ComponentDrill
T3C0.0236
%
G90
G05
T1
X4.878Y-3.1063
X4.878Y-3.1378
X4.9152Y-3.1063
X4.9152Y-3.1378
X4.9506Y-3.1063
X4.9506Y-3.1378
X5.4055Y-3.2717
X5.4055Y-3.2992
X5.4291Y-3.2441
X5.4291Y-3.3228
X5.4685Y-3.2441
X5.4685Y-3.3228
T2
X4.4427Y-3.203
X4.4724Y-3.1772
X4.5591Y-3.0197
X4.5591Y-3.3504
X4.5984Y-3.1575
X4.5984Y-3.2165
X4.8893Y-3.2141
X5.0008Y-3.0053
X5.0008Y-3.0969
X5.1189Y-3.211
T3
G00X4.3388Y-3.015
M15
G01X4.3152Y-3.015
M16
G05
G00X4.3388Y-3.3551
M15
G01X4.3152Y-3.3551
M16
G05
G00X4.5132Y-3.015
M15
G01X4.4699Y-3.015
M16
G05
G00X4.5132Y-3.3551
M15
G01X4.4699Y-3.3551
M16
G05
T0
M30
